<?xml version="1.0" standalone="no"?>
<!DOCTYPE svg PUBLIC "-//W3C//DTD SVG 20010904//EN"
 "http://www.w3.org/TR/2001/REC-SVG-20010904/DTD/svg10.dtd">
<svg version="1.0" xmlns="http://www.w3.org/2000/svg"
 width="269.000000pt" height="269.000000pt" viewBox="0 0 269.000000 269.000000"
 preserveAspectRatio="xMidYMid meet">
<metadata>
Created by potrace 1.14, written by Peter Selinger 2001-2017
</metadata>
<g transform="translate(0.000000,269.000000) scale(0.100000,-0.100000)"
fill="#000000" stroke="none">
<path d="M1177 2430 c-78 -30 -147 -90 -212 -183 -54 -76 -65 -86 -105 -97
-63 -18 -180 -72 -233 -109 -24 -16 -63 -38 -86 -47 -38 -15 -111 -85 -111
-107 0 -4 46 -79 101 -165 125 -193 135 -209 125 -200 -9 8 -37 -4 -278 -117
-93 -43 -168 -81 -168 -84 0 -4 41 -29 90 -56 50 -28 98 -55 107 -61 14 -9 1
-30 -92 -150 -127 -163 -158 -223 -163 -315 -4 -73 12 -118 71 -193 40 -50
116 -99 132 -86 9 8 11 4 8 -15 -5 -25 -4 -27 173 -215 34 -36 74 -80 89 -98
39 -47 88 -45 138 6 40 41 46 66 21 94 -22 24 -8 41 66 78 84 42 152 49 414
38 l231 -10 117 -84 c64 -46 122 -84 128 -84 6 0 10 42 10 115 0 111 1 115 23
120 13 4 93 -3 178 -15 176 -25 246 -22 325 14 41 19 61 37 88 78 46 69 70
164 63 243 -7 66 -52 219 -92 309 -20 46 -23 60 -13 75 10 16 4 34 -35 112
-27 54 -47 108 -47 126 0 37 -56 194 -73 205 -9 5 -9 10 1 20 19 19 15 43 -19
110 l-31 61 -59 -7 c-32 -3 -59 -4 -59 -3 0 1 9 29 20 61 17 48 19 64 10 92
-13 38 -60 69 -91 61 -17 -5 -19 3 -21 93 l-3 98 -95 -69 c-52 -38 -99 -69
-105 -69 -5 0 -46 69 -89 153 -87 165 -151 246 -221 278 -54 25 -164 24 -228
-1z m137 -219 c29 -25 49 -74 105 -250 l52 -164 -33 -36 c-18 -20 -36 -40 -39
-44 -4 -5 -33 29 -65 75 -32 46 -78 109 -102 141 -28 38 -48 77 -56 111 -7 29
-23 68 -35 85 -13 18 -22 34 -20 35 19 16 98 60 119 66 29 8 48 3 74 -19z m63
-11 c17 0 233 -232 233 -250 0 -11 -125 -88 -131 -82 -4 4 -26 66 -49 137 -47
144 -62 178 -94 215 l-21 25 26 -22 c14 -13 30 -23 36 -23z m-294 -63 c44 -19
59 -40 68 -96 6 -38 23 -69 77 -142 118 -160 242 -352 242 -374 0 -7 -80 -44
-96 -45 -6 0 -22 16 -35 35 -13 19 -44 49 -68 67 -58 41 -103 41 -206 1 -141
-55 -126 -64 -232 132 -121 225 -136 248 -178 270 -19 11 -35 22 -35 25 0 11
185 99 240 114 100 27 177 32 223 13z m910 -235 c23 -20 22 -59 -3 -126 -21
-55 -47 -77 -61 -54 -17 27 -28 106 -20 135 21 73 39 83 84 45z m-106 -74 c1
-46 3 -93 5 -106 3 -21 -6 -27 -82 -56 -47 -18 -133 -53 -192 -79 -59 -26
-111 -47 -115 -47 -4 0 -27 35 -51 79 l-42 79 38 34 c29 26 77 48 217 96 99
35 187 67 195 72 8 5 17 10 20 10 3 0 6 -37 7 -82z m246 -173 l27 -55 -34 -26
c-49 -39 -686 -344 -718 -344 -30 0 -46 19 -73 83 l-16 38 48 21 c211 91 307
134 503 229 124 60 227 109 230 109 3 0 18 -25 33 -55z m-283 -31 c-212 -103
-470 -217 -476 -211 -14 13 51 60 136 97 243 107 454 189 485 189 6 0 -60 -34
-145 -75z m-627 -48 c39 -16 91 -66 113 -108 14 -28 14 -30 -16 -68 -23 -29
-30 -46 -25 -62 4 -13 -7 0 -24 29 -22 38 -39 54 -65 63 -53 17 -86 56 -86
101 0 56 37 73 103 45z m-234 -763 c-55 -14 -117 -53 -164 -103 -32 -34 -73
-62 -60 -40 6 9 -19 10 -103 5 -96 -7 -119 -5 -179 14 -89 26 -108 47 -108
115 1 41 12 75 59 176 32 69 61 128 65 133 4 4 63 -29 131 -73 69 -44 128 -80
132 -80 9 0 11 11 33 140 8 52 18 111 22 130 5 33 12 23 114 -185 l108 -219
-50 -13z m1158 405 l33 -32 -121 -58 -121 -57 38 -48 c21 -26 45 -54 53 -60
13 -12 13 -13 -1 -13 -19 0 -114 -69 -189 -138 -31 -29 -59 -52 -61 -52 -2 0
-2 18 0 40 l4 40 -37 -16 c-20 -8 -38 -14 -39 -12 -6 8 -46 121 -46 128 0 5 9
12 20 15 16 5 20 15 20 48 l0 42 198 102 c108 56 201 103 207 103 5 0 24 -14
42 -32z m86 -255 c-7 -2 -19 -2 -25 0 -7 3 -2 5 12 5 14 0 19 -2 13 -5z m-669
-95 l65 -83 -26 -14 c-36 -18 -157 -8 -286 25 -54 13 -114 25 -133 26 -19 1
-30 4 -24 8 7 4 9 20 5 42 l-6 34 128 21 c214 34 200 37 277 -59z m693 48 c6
-5 -39 -55 -178 -198 -58 -59 -109 -105 -113 -101 -4 5 -6 1 -4 -7 2 -9 -4
-14 -14 -14 -10 1 -16 -2 -13 -6 12 -20 -197 -175 -223 -165 -7 2 -11 1 -8 -3
3 -5 -22 -17 -55 -26 -55 -17 -84 -18 -327 -10 -147 5 -289 7 -317 6 -76 -5
-154 -30 -214 -69 l-55 -36 -19 24 c-10 13 -48 55 -85 92 l-66 69 24 18 c14
11 36 25 50 32 14 7 57 36 95 64 67 50 88 67 165 135 57 51 94 62 205 63 77 1
124 -5 205 -26 84 -21 137 -27 267 -32 146 -5 168 -8 218 -31 58 -26 78 -51
54 -66 -8 -5 -131 -9 -274 -10 -143 0 -271 -4 -284 -8 -31 -8 -50 -36 -34 -52
8 -8 17 -7 34 2 18 10 86 12 287 10 254 -2 263 -1 292 19 17 12 30 28 30 36 0
9 5 12 13 8 10 -6 10 -4 0 7 -15 15 -17 43 -3 34 5 -3 7 0 5 8 -4 8 32 48 88
101 101 94 128 115 167 132 24 11 76 11 87 0z m36 -41 c-3 -9 -8 -14 -10 -11
-3 3 -2 9 2 15 9 16 15 13 8 -4z m-538 -123 c-3 -3 -11 0 -18 7 -9 10 -8 11 6
5 10 -3 15 -9 12 -12z m405 -87 c0 -88 -48 -123 -170 -125 l-35 0 95 94 c52
52 98 92 102 90 5 -3 8 -29 8 -59z m-1764 -173 c-17 -16 -18 -16 -5 5 7 12 15
20 18 17 3 -2 -3 -12 -13 -22z m107 -37 c-3 -9 -8 -14 -10 -11 -3 3 -2 9 2 15
9 16 15 13 8 -4z m1367 0 c0 -2 -10 -9 -22 -15 -22 -11 -22 -10 -4 4 21 17 26
19 26 11z m-1403 -27 c-3 -8 -6 -5 -6 6 -1 11 2 17 5 13 3 -3 4 -12 1 -19z
m67 -24 c5 -14 4 -15 -9 -4 -17 14 -19 20 -6 20 5 0 12 -7 15 -16z m82 -73 c0
-11 -4 -17 -9 -14 -10 6 -38 -17 -33 -26 3 -4 -4 -7 -14 -8 -15 -1 -11 6 16
33 20 19 37 34 38 34 1 0 2 -9 2 -19z m-81 -11 c16 -17 16 -20 3 -15 -9 4 -19
13 -22 21 -7 19 -2 18 19 -6z m145 -71 c0 -6 7 -9 15 -6 8 4 17 1 21 -5 4 -6
3 -8 -4 -4 -5 3 -13 0 -16 -6 -5 -11 -7 -11 -12 0 -3 6 -9 10 -13 8 -4 -3 -8
1 -8 9 0 8 4 15 9 15 4 0 8 -5 8 -11z m-55 -29 c-3 -5 -12 -10 -18 -10 -7 0
-6 4 3 10 19 12 23 12 15 0z m45 -20 c0 -21 -15 -27 -25 -10 -7 12 2 30 16 30
5 0 9 -9 9 -20z m44 -5 c-24 -18 -35 -19 -28 -2 2 7 14 13 25 14 21 2 21 1 3
-12z"/>
</g>
</svg>
